<svg xmlns="http://www.w3.org/2000/svg" width="1200" height="1500" viewBox="0 0 1200 1500">
<defs>
<radialGradient id="g" cx="50%" cy="28%" r="85%">
<stop offset="0%" stop-color="#1a1512"/><stop offset="100%" stop-color="#0d0b0c"/>
</radialGradient>
<linearGradient id="vig" x1="0" y1="0" x2="0" y2="1">
<stop offset="55%" stop-color="#000" stop-opacity="0"/>
<stop offset="100%" stop-color="#000" stop-opacity="0.72"/>
</linearGradient>
<filter id="b"><feGaussianBlur stdDeviation="7"/></filter>
</defs>
<rect width="1200" height="1500" fill="url(#g)"/>
<g filter="url(#b)"><circle cx="1190" cy="398" r="9" fill="#E8C77A" opacity="0.51"/><circle cx="956" cy="99" r="14" fill="#E8C77A" opacity="0.3"/><circle cx="454" cy="590" r="6" fill="#E8C77A" opacity="0.4"/><circle cx="434" cy="673" r="6" fill="#E8C77A" opacity="0.09"/><circle cx="395" cy="329" r="2" fill="#E8C77A" opacity="0.27"/><circle cx="1100" cy="750" r="3" fill="#E8C77A" opacity="0.29"/><circle cx="667" cy="489" r="14" fill="#E8C77A" opacity="0.45"/><circle cx="864" cy="426" r="2" fill="#E8C77A" opacity="0.27"/><circle cx="623" cy="433" r="2" fill="#E8C77A" opacity="0.38"/><circle cx="672" cy="547" r="6" fill="#E8C77A" opacity="0.44"/><circle cx="469" cy="866" r="2" fill="#E8C77A" opacity="0.25"/><circle cx="856" cy="13" r="20" fill="#E8C77A" opacity="0.28"/><circle cx="1095" cy="193" r="4" fill="#E8C77A" opacity="0.45"/><circle cx="759" cy="736" r="2" fill="#E8C77A" opacity="0.18"/><circle cx="314" cy="70" r="6" fill="#E8C77A" opacity="0.14"/><circle cx="134" cy="308" r="6" fill="#E8C77A" opacity="0.39"/><circle cx="742" cy="973" r="3" fill="#E8C77A" opacity="0.3"/><circle cx="1045" cy="637" r="20" fill="#E8C77A" opacity="0.48"/><circle cx="1086" cy="12" r="2" fill="#E8C77A" opacity="0.08"/><circle cx="1178" cy="708" r="9" fill="#E8C77A" opacity="0.52"/><circle cx="905" cy="243" r="14" fill="#E8C77A" opacity="0.4"/><circle cx="943" cy="287" r="14" fill="#E8C77A" opacity="0.14"/><circle cx="411" cy="1120" r="6" fill="#E8C77A" opacity="0.54"/><circle cx="285" cy="166" r="3" fill="#E8C77A" opacity="0.49"/><circle cx="691" cy="768" r="2" fill="#E8C77A" opacity="0.08"/><circle cx="1127" cy="717" r="6" fill="#E8C77A" opacity="0.08"/><circle cx="570" cy="670" r="2" fill="#E8C77A" opacity="0.19"/><circle cx="315" cy="512" r="6" fill="#E8C77A" opacity="0.15"/><circle cx="229" cy="1073" r="20" fill="#E8C77A" opacity="0.5"/><circle cx="653" cy="500" r="2" fill="#E8C77A" opacity="0.19"/><circle cx="360" cy="24" r="2" fill="#E8C77A" opacity="0.37"/><circle cx="939" cy="91" r="20" fill="#E8C77A" opacity="0.22"/><circle cx="559" cy="965" r="14" fill="#E8C77A" opacity="0.15"/><circle cx="1096" cy="645" r="4" fill="#E8C77A" opacity="0.06"/><circle cx="273" cy="590" r="4" fill="#E8C77A" opacity="0.39"/><circle cx="825" cy="820" r="14" fill="#E8C77A" opacity="0.08"/><circle cx="451" cy="1057" r="2" fill="#E8C77A" opacity="0.16"/><circle cx="246" cy="298" r="4" fill="#E8C77A" opacity="0.11"/></g>
<rect x="46" y="46" width="1108" height="1408" fill="none" stroke="#C9A24B" stroke-opacity="0.5" stroke-width="2"/>
<rect x="60" y="60" width="1080" height="1380" fill="none" stroke="#C9A24B" stroke-opacity="0.22" stroke-width="1"/>
<rect width="1200" height="1500" fill="url(#vig)"/>
<text x="50%" y="1360" text-anchor="middle" font-family="Georgia, serif" font-size="30" letter-spacing="10" fill="#E8C77A" opacity="0.9">FESTSAAL · 01</text>
<text x="50%" y="1404" text-anchor="middle" font-family="Georgia, serif" font-size="20" letter-spacing="4" fill="#cbb98f" opacity="0.55">PALAIS DORÉ · PLATZHALTER</text>
</svg>