<svg xmlns="http://www.w3.org/2000/svg" width="1600" height="900" viewBox="0 0 1600 900">
<defs>
<radialGradient id="bg" cx="51%" cy="44%" r="80%">
<stop offset="0%" stop-color="#1b1510"/><stop offset="60%" stop-color="#0c0a09"/><stop offset="100%" stop-color="#000"/>
</radialGradient>
</defs>
<rect width="1600" height="900" fill="url(#bg)"/>
<path d="M 472 900 L 794 426 L 822 426 L 1144 900 Z" fill="#C9A24B" fill-opacity="0.06"/><path d="M 485 587 L 485 335 Q 485 205 808 205 Q 1131 205 1131 335 L 1131 587" fill="none" stroke="#C9A24B" stroke-opacity="0.29" stroke-width="2.3"/><path d="M 340 672 L 340 308 Q 340 120 808 120 Q 1276 120 1276 308 L 1276 672" fill="none" stroke="#C9A24B" stroke-opacity="0.34" stroke-width="2.6"/><path d="M 165 776 L 165 275 Q 165 16 808 16 Q 1451 16 1451 275 L 1451 776" fill="none" stroke="#C9A24B" stroke-opacity="0.39" stroke-width="2.9"/><path d="M -40 897 L -40 236 Q -40 -105 808 -105 Q 1656 -105 1656 236 L 1656 897" fill="none" stroke="#C9A24B" stroke-opacity="0.44" stroke-width="3.2"/><path d="M -276 1036 L -276 191 Q -276 -244 808 -244 Q 1892 -244 1892 191 L 1892 1036" fill="none" stroke="#C9A24B" stroke-opacity="0.49" stroke-width="3.5"/><path d="M -542 1193 L -542 141 Q -542 -401 808 -401 Q 2158 -401 2158 141 L 2158 1193" fill="none" stroke="#C9A24B" stroke-opacity="0.54" stroke-width="3.8"/><path d="M 759 425 L 759 387 Q 759 367 808 367 Q 857 367 857 387 L 857 425" fill="none" stroke="#C9A24B" stroke-opacity="0.09" stroke-width="1.1"/><path d="M 736 438 L 736 382 Q 736 354 808 354 Q 880 354 880 382 L 880 438" fill="none" stroke="#C9A24B" stroke-opacity="0.14" stroke-width="1.4"/><path d="M 683 470 L 683 372 Q 683 322 808 322 Q 933 322 933 372 L 933 470" fill="none" stroke="#C9A24B" stroke-opacity="0.19" stroke-width="1.7"/><path d="M 599 519 L 599 356 Q 599 273 808 273 Q 1017 273 1017 356 L 1017 519" fill="none" stroke="#C9A24B" stroke-opacity="0.24" stroke-width="2.0"/><circle cx="808" cy="356" r="22" fill="#E8C77A" opacity="0.25"/><circle cx="808" cy="356" r="8" fill="#E8C77A" opacity="0.6"/>
<text x="28" y="874" font-family="Georgia,serif" font-size="20" letter-spacing="3" fill="#E8C77A" opacity="0.5">RUNDGANG · FRAME 21/48</text>
</svg>