<svg xmlns="http://www.w3.org/2000/svg" width="1600" height="900" viewBox="0 0 1600 900">
<defs>
<radialGradient id="bg" cx="50%" cy="44%" r="80%">
<stop offset="0%" stop-color="#1b1510"/><stop offset="60%" stop-color="#0c0a09"/><stop offset="100%" stop-color="#000"/>
</radialGradient>
</defs>
<rect width="1600" height="900" fill="url(#bg)"/>
<path d="M 469 900 L 791 426 L 819 426 L 1141 900 Z" fill="#C9A24B" fill-opacity="0.06"/><path d="M 754 426 L 754 386 Q 754 366 805 366 Q 856 366 856 386 L 856 426" fill="none" stroke="#C9A24B" stroke-opacity="0.1" stroke-width="1.1"/><path d="M 726 443 L 726 381 Q 726 349 805 349 Q 884 349 884 381 L 884 443" fill="none" stroke="#C9A24B" stroke-opacity="0.15" stroke-width="1.4"/><path d="M 667 477 L 667 370 Q 667 315 805 315 Q 942 315 942 370 L 942 477" fill="none" stroke="#C9A24B" stroke-opacity="0.2" stroke-width="1.7"/><path d="M 578 530 L 578 353 Q 578 262 805 262 Q 1031 262 1031 353 L 1031 530" fill="none" stroke="#C9A24B" stroke-opacity="0.25" stroke-width="2.0"/><path d="M 459 600 L 459 331 Q 459 192 805 192 Q 1150 192 1150 331 L 1150 600" fill="none" stroke="#C9A24B" stroke-opacity="0.3" stroke-width="2.3"/><path d="M 309 689 L 309 302 Q 309 103 805 103 Q 1300 103 1300 302 L 1300 689" fill="none" stroke="#C9A24B" stroke-opacity="0.35" stroke-width="2.6"/><path d="M 129 795 L 129 268 Q 129 -3 805 -3 Q 1480 -3 1480 268 L 1480 795" fill="none" stroke="#C9A24B" stroke-opacity="0.4" stroke-width="2.9"/><path d="M -81 919 L -81 229 Q -81 -127 805 -127 Q 1691 -127 1691 229 L 1691 919" fill="none" stroke="#C9A24B" stroke-opacity="0.45" stroke-width="3.2"/><path d="M -322 1062 L -322 183 Q -322 -270 805 -270 Q 1932 -270 1932 183 L 1932 1062" fill="none" stroke="#C9A24B" stroke-opacity="0.5" stroke-width="3.5"/><path d="M -594 1222 L -594 132 Q -594 -430 805 -430 Q 2203 -430 2203 132 L 2203 1222" fill="none" stroke="#C9A24B" stroke-opacity="0.55" stroke-width="3.8"/><circle cx="805" cy="356" r="10" fill="#E8C77A" opacity="0.25"/><circle cx="805" cy="356" r="4" fill="#E8C77A" opacity="0.6"/>
<text x="28" y="874" font-family="Georgia,serif" font-size="20" letter-spacing="3" fill="#E8C77A" opacity="0.5">RUNDGANG · FRAME 03/48</text>
</svg>