<svg xmlns="http://www.w3.org/2000/svg" width="1600" height="900" viewBox="0 0 1600 900">
<defs>
<radialGradient id="bg" cx="50%" cy="44%" r="80%">
<stop offset="0%" stop-color="#1b1510"/><stop offset="60%" stop-color="#0c0a09"/><stop offset="100%" stop-color="#000"/>
</radialGradient>
</defs>
<rect width="1600" height="900" fill="url(#bg)"/>
<path d="M 464 900 L 786 426 L 814 426 L 1136 900 Z" fill="#C9A24B" fill-opacity="0.06"/><path d="M 752 424 L 752 387 Q 752 368 800 368 Q 848 368 848 387 L 848 424" fill="none" stroke="#C9A24B" stroke-opacity="0.08" stroke-width="1.0"/><path d="M 737 433 L 737 384 Q 737 359 800 359 Q 863 359 863 384 L 863 433" fill="none" stroke="#C9A24B" stroke-opacity="0.13" stroke-width="1.3"/><path d="M 691 460 L 691 375 Q 691 332 800 332 Q 909 332 909 375 L 909 460" fill="none" stroke="#C9A24B" stroke-opacity="0.18" stroke-width="1.6"/><path d="M 615 505 L 615 361 Q 615 287 800 287 Q 985 287 985 361 L 985 505" fill="none" stroke="#C9A24B" stroke-opacity="0.23" stroke-width="1.9"/><path d="M 509 568 L 509 341 Q 509 224 800 224 Q 1091 224 1091 341 L 1091 568" fill="none" stroke="#C9A24B" stroke-opacity="0.28" stroke-width="2.2"/><path d="M 372 649 L 372 315 Q 372 143 800 143 Q 1228 143 1228 315 L 1228 649" fill="none" stroke="#C9A24B" stroke-opacity="0.33" stroke-width="2.5"/><path d="M 205 748 L 205 284 Q 205 44 800 44 Q 1395 44 1395 284 L 1395 748" fill="none" stroke="#C9A24B" stroke-opacity="0.38" stroke-width="2.8"/><path d="M 7 864 L 7 246 Q 7 -72 800 -72 Q 1593 -72 1593 246 L 1593 864" fill="none" stroke="#C9A24B" stroke-opacity="0.43" stroke-width="3.1"/><path d="M -221 999 L -221 203 Q -221 -207 800 -207 Q 1821 -207 1821 203 L 1821 999" fill="none" stroke="#C9A24B" stroke-opacity="0.48" stroke-width="3.4"/><path d="M -479 1152 L -479 154 Q -479 -360 800 -360 Q 2079 -360 2079 154 L 2079 1152" fill="none" stroke="#C9A24B" stroke-opacity="0.53" stroke-width="3.7"/><circle cx="800" cy="356" r="9" fill="#E8C77A" opacity="0.25"/><circle cx="800" cy="356" r="3" fill="#E8C77A" opacity="0.6"/>
<text x="28" y="874" font-family="Georgia,serif" font-size="20" letter-spacing="3" fill="#E8C77A" opacity="0.5">RUNDGANG · FRAME 01/48</text>
</svg>